<svg id="Ebene_1" data-name="Ebene 1" xmlns="http://www.w3.org/2000/svg" width="160" height="160" viewBox="0 0 160 160">
  <defs>
    <style>
      .cls-1 {
        fill: #fff;
      }
    </style>
  </defs>
  <title>menu_icon</title>
  <g id="surface1">
    <path class="cls-1" d="M32,25.41h0l.85,19.24c-7.19.86-14.23,6.09-16.69,13L3.53,92.68A33.71,33.71,0,0,0,24.07,136.2l43.47,15.59h0a41.85,41.85,0,0,0,53.88-25.44l1.37-3.81c9.78-24.9-5.22-52.66-32-59.67a50,50,0,0,0-38.65,9.38L53,70c2.46-6.86,1.11-15.09-4.94-19.84L60.66,36.57l.76.27A11.08,11.08,0,0,0,75.93,30c2.18-6.1-2-13.63-7.34-15.54S55.51,14.92,53.32,21a13,13,0,0,0,.81,9.76L41.74,46.13,41,45.86l-.57-20c3.11-1.47,5.45-3.21,6.82-7,1.43-6.38-1.51-12.59-7.61-14.78A11.08,11.08,0,0,0,25.1,10.91,11.08,11.08,0,0,0,32,25.41Zm33.9-3.33a3.83,3.83,0,0,1,2.45,5.18c-.82,2.28-2.62,2.5-4.91,1.68A3.83,3.83,0,0,1,61,23.76C61.77,21.47,63.57,21.26,65.85,22.08Zm23,48.69c22.17,5.37,34.18,29.48,26.8,50.07l-1.37,3.81c-6.56,18.3-26,26.84-44.28,20.27a27,27,0,0,1-16.14-34.19l2.19-6.1c3.55-9.91,14.46-16.33,23.61-13C89.85,94.37,96,106,92.17,116.72l-1.37,3.81a8.1,8.1,0,0,1-15.25-5.47l1.36-3.81a4,4,0,1,0-7.62-2.73l-1.37,3.81c-2.73,7.63,1.67,17,9.29,19.68s17-1.66,19.69-9.29l1.37-3.81A26.85,26.85,0,0,0,80.6,84.17c-13.24-3.89-28,3.72-32.94,17.45l-2.19,6.1-1.09,3c-3.27-2.89-5.71-8.07-4.07-12.65l.82-2.28C49.49,77.32,70,65.74,88.85,70.77ZM35,96.21c-3.28,9.15.85,19.24,9.45,24.05.38,6.15,1.51,12.59,4.72,18l-22.88-8.2A27,27,0,0,1,10.12,95.91L23,60.06c1.91-5.34,7.64-9.31,13.25-8.16,8.18,1.21,11.6,8.47,9.14,15.33Zm1.9-84.53a3.84,3.84,0,0,1,2.45,5.19c-.82,2.28-2.62,2.5-4.91,1.68s-2.5-2.62-1.68-4.91A3,3,0,0,1,36.87,11.68Z"/>
    <path class="cls-1" d="M36.05,59.59A3.83,3.83,0,0,0,30.87,62l-2.73,7.63a3.82,3.82,0,0,0,2.44,5.18c2.29.82,3.87-1.19,4.42-2.72l2.73-7.62C38.55,62.21,37.58,60.14,36.05,59.59Z"/>
  </g>
  <polygon class="cls-1" points="102 57 104 62 159 62 102 57"/>
  <polygon class="cls-1" points="119 67.72 120.44 71.78 160 71.78 119 67.72"/>
  <polygon class="cls-1" points="128 80 129.12 84 160 84 128 80"/>
  <polygon class="cls-1" points="132 93 132.98 98 160 98 132 93"/>
  <polygon class="cls-1" points="132 108 132.98 111 160 111 132 108"/>
</svg>
