<svg xmlns="http://www.w3.org/2000/svg" xmlns:xlink="http://www.w3.org/1999/xlink" width="500" height="500" viewBox="0 0 500 500">
  <defs>
    <style>
      .cls-1 {
        isolation: isolate;
      }

      .cls-2 {
        fill: url(#Unbenannter_Verlauf_38);
      }

      .cls-3 {
        opacity: 0.9;
      }

      .cls-4 {
        fill: #71e2ef;
      }

      .cls-13, .cls-5 {
        fill: #fff;
      }

      .cls-6 {
        fill: #207d22;
      }

      .cls-7 {
        fill: #2ca038;
      }

      .cls-8 {
        fill: #f6c91c;
      }

      .cls-9 {
        fill: #ff6929;
      }

      .cls-10 {
        fill: #ffe666;
        opacity: 0.6;
      }

      .cls-11 {
        fill: url(#linear-gradient);
      }

      .cls-12 {
        fill: #bda488;
      }

      .cls-12, .cls-17, .cls-19, .cls-30, .cls-42 {
        opacity: 0.3;
      }

      .cls-12, .cls-17, .cls-19, .cls-22, .cls-28, .cls-30, .cls-32, .cls-34, .cls-36, .cls-38, .cls-40 {
        mix-blend-mode: multiply;
      }

      .cls-13 {
        opacity: 0.5;
      }

      .cls-14, .cls-19, .cls-22 {
        fill: #c75b2c;
      }

      .cls-15, .cls-17, .cls-28 {
        fill: #88413f;
      }

      .cls-16 {
        fill: #cfb3b2;
      }

      .cls-18 {
        fill: url(#linear-gradient-2);
      }

      .cls-20 {
        fill: url(#linear-gradient-3);
      }

      .cls-21 {
        fill: url(#linear-gradient-4);
      }

      .cls-22, .cls-34, .cls-36, .cls-38, .cls-43, .cls-44 {
        opacity: 0.2;
      }

      .cls-23 {
        fill: #b83737;
      }

      .cls-24 {
        fill: #eb5e73;
      }

      .cls-25 {
        fill: #fee566;
      }

      .cls-26 {
        fill: #8a5f2b;
      }

      .cls-27 {
        fill: url(#linear-gradient-5);
      }

      .cls-28, .cls-32, .cls-40 {
        opacity: 0.4;
      }

      .cls-29 {
        fill: url(#linear-gradient-6);
      }

      .cls-30 {
        fill: url(#linear-gradient-7);
      }

      .cls-31 {
        fill: url(#linear-gradient-8);
      }

      .cls-32 {
        fill: url(#linear-gradient-9);
      }

      .cls-33 {
        fill: url(#linear-gradient-10);
      }

      .cls-34 {
        fill: url(#linear-gradient-11);
      }

      .cls-35 {
        fill: url(#linear-gradient-12);
      }

      .cls-36 {
        fill: url(#linear-gradient-13);
      }

      .cls-37 {
        fill: url(#linear-gradient-14);
      }

      .cls-38 {
        fill: url(#linear-gradient-15);
      }

      .cls-39 {
        fill: url(#linear-gradient-16);
      }

      .cls-40 {
        fill: url(#linear-gradient-17);
      }

      .cls-41 {
        fill: url(#linear-gradient-18);
      }

      .cls-42, .cls-43, .cls-44 {
        mix-blend-mode: screen;
      }

      .cls-42 {
        fill: url(#linear-gradient-19);
      }

      .cls-43 {
        fill: url(#linear-gradient-20);
      }

      .cls-44 {
        fill: url(#linear-gradient-21);
      }

      .cls-45 {
        fill: url(#linear-gradient-22);
      }
    </style>
    <radialGradient id="Unbenannter_Verlauf_38" data-name="Unbenannter Verlauf 38" cx="249.5" cy="249.5" r="250" gradientUnits="userSpaceOnUse">
      <stop offset="0.34" stop-color="#dbdbdb"/>
      <stop offset="1" stop-color="#737373"/>
    </radialGradient>
    <linearGradient id="linear-gradient" x1="113.49" y1="294.16" x2="160.65" y2="343.94" gradientUnits="userSpaceOnUse">
      <stop offset="0" stop-color="#f7eee8"/>
      <stop offset="1" stop-color="#e3dad5"/>
    </linearGradient>
    <linearGradient id="linear-gradient-2" x1="134.32" y1="304.9" x2="227.75" y2="421.9" gradientUnits="userSpaceOnUse">
      <stop offset="0" stop-color="#fe9029"/>
      <stop offset="0.7" stop-color="#fecb53"/>
      <stop offset="1" stop-color="#fee566"/>
    </linearGradient>
    <linearGradient id="linear-gradient-3" x1="207.12" y1="397.6" x2="192.01" y2="352.24" gradientUnits="userSpaceOnUse">
      <stop offset="0" stop-color="#fe9029"/>
      <stop offset="0.22" stop-color="#feaa3c"/>
      <stop offset="0.54" stop-color="#feca53"/>
      <stop offset="0.82" stop-color="#fede61"/>
      <stop offset="1" stop-color="#fee566"/>
    </linearGradient>
    <linearGradient id="linear-gradient-4" x1="96.04" y1="188.79" x2="122.24" y2="277" gradientUnits="userSpaceOnUse">
      <stop offset="0.15" stop-color="#fee566"/>
      <stop offset="0.4" stop-color="#fecb53"/>
      <stop offset="1" stop-color="#fe9029"/>
    </linearGradient>
    <linearGradient id="linear-gradient-5" x1="112.07" y1="319.06" x2="106.83" y2="288.49" xlink:href="#linear-gradient-2"/>
    <linearGradient id="linear-gradient-6" x1="317.24" y1="209.94" x2="329.47" y2="233.52" gradientUnits="userSpaceOnUse">
      <stop offset="0" stop-color="#43acbf"/>
      <stop offset="0.39" stop-color="#3c859c"/>
      <stop offset="1" stop-color="#324a69"/>
    </linearGradient>
    <linearGradient id="linear-gradient-7" x1="313.88" y1="235.49" x2="341.88" y2="235.49" gradientUnits="userSpaceOnUse">
      <stop offset="0" stop-color="#43acbf"/>
      <stop offset="0.22" stop-color="#3e9baf"/>
      <stop offset="1" stop-color="#2b607a"/>
    </linearGradient>
    <linearGradient id="linear-gradient-8" x1="292.74" y1="221.89" x2="311.95" y2="259.44" xlink:href="#linear-gradient-6"/>
    <linearGradient id="linear-gradient-9" x1="299.8" y1="267.12" x2="323.09" y2="267.12" xlink:href="#linear-gradient-7"/>
    <linearGradient id="linear-gradient-10" x1="267.5" y1="203.26" x2="310.3" y2="292.34" gradientUnits="userSpaceOnUse">
      <stop offset="0" stop-color="#43acbf"/>
      <stop offset="0.19" stop-color="#3e9baf"/>
      <stop offset="0.85" stop-color="#2b607a"/>
    </linearGradient>
    <linearGradient id="linear-gradient-11" x1="288.06" y1="276.43" x2="310.09" y2="276.43" xlink:href="#linear-gradient-7"/>
    <linearGradient id="linear-gradient-12" x1="225.78" y1="207.49" x2="293.66" y2="313.61" xlink:href="#linear-gradient-6"/>
    <linearGradient id="linear-gradient-13" x1="251.47" y1="290.9" x2="301.29" y2="290.9" xlink:href="#linear-gradient-7"/>
    <linearGradient id="linear-gradient-14" x1="182.09" y1="226.99" x2="259.82" y2="316.95" xlink:href="#linear-gradient-7"/>
    <linearGradient id="linear-gradient-15" x1="133.27" y1="283.66" x2="286.48" y2="283.66" xlink:href="#linear-gradient-7"/>
    <linearGradient id="linear-gradient-16" x1="155.09" y1="244.16" x2="247.67" y2="356.83" gradientUnits="userSpaceOnUse">
      <stop offset="0.26" stop-color="#43acbf"/>
      <stop offset="0.42" stop-color="#3e9baf"/>
      <stop offset="1" stop-color="#2b607a"/>
    </linearGradient>
    <linearGradient id="linear-gradient-17" x1="169.76" y1="294.41" x2="260.21" y2="294.41" xlink:href="#linear-gradient-7"/>
    <linearGradient id="linear-gradient-18" x1="235.76" y1="290.67" x2="282.92" y2="340.45" xlink:href="#linear-gradient"/>
    <linearGradient id="linear-gradient-19" x1="130.03" y1="240.34" x2="170.86" y2="240.34" xlink:href="#linear-gradient-7"/>
    <linearGradient id="linear-gradient-20" x1="208.53" y1="262.87" x2="254.63" y2="262.87" xlink:href="#linear-gradient-7"/>
    <linearGradient id="linear-gradient-21" x1="220.24" y1="218.89" x2="274.92" y2="218.89" xlink:href="#linear-gradient-7"/>
    <linearGradient id="linear-gradient-22" x1="121.18" y1="158.1" x2="127.39" y2="158.1" xlink:href="#linear-gradient-7"/>
  </defs>
  <title>icon</title>
  <g class="cls-1">
    <g id="Ebene_1" data-name="Ebene 1">
      <rect class="cls-2" x="-0.5" y="-0.5" width="500" height="500" rx="67.66" ry="67.66"/>
      <g class="cls-3">
        <g>
          <rect class="cls-4" x="228.05" y="78.92" width="219.46" height="164.6"/>
          <path class="cls-5" d="M453,249H222.56V73.43H453ZM233.54,238H442V84.4H233.54Z"/>
        </g>
        <polygon class="cls-6" points="442.3 238.57 376.73 118.7 307.34 238.57 442.3 238.57"/>
        <polygon class="cls-7" points="381.69 238.57 309.58 153.45 233.26 238.57 381.69 238.57"/>
        <circle class="cls-8" cx="266.46" cy="117.6" r="17.28"/>
      </g>
      <g>
        <g>
          <path class="cls-9" d="M227.6,383.11C254.38,397.66,287,393.59,287,393.59s-12.23-35.52-46-48.91S227.6,383.11,227.6,383.11Z"/>
          <path class="cls-10" d="M232.26,371.46c19.21,14,37.84,10.48,37.84,10.48s-9.31-19.8-30.27-26.78S232.26,371.46,232.26,371.46Z"/>
          <path class="cls-11" d="M242.69,390.24c-4.56,6.15-12,6.71-22.66-4.8-29.69-32-68.12-23.3-108.87-23.88a45.5,45.5,0,0,1-19.29-4.47c-21.17-10.2-33.39-36.5-30.81-65.26a87.51,87.51,0,0,1,2.81-15.58c6.73,6.31,12.2,13.63,15.2,21-6.2,73.52,71.35,38.12,98,34.27,15.84-2.28,54.13-6.53,65.66,9.12a23.33,23.33,0,0,1,3.07,6.29C250.09,359.54,249.53,381.09,242.69,390.24Z"/>
          <path class="cls-12" d="M245.81,346.89c-5.92-5.75-15.52-12.13-27.53-13.71-33.18-4.37-68.12,13.54-103,14-26.24.33-38.43-14-40.18-37.55-1.53-20.65-7.94-27.16-14-17.77a87.51,87.51,0,0,1,2.81-15.58c6.73,6.31,12.2,13.63,15.2,21-6.2,73.52,71.35,38.12,98,34.27,15.84-2.28,54.13-6.53,65.66,9.12A23.33,23.33,0,0,1,245.81,346.89Z"/>
          <path class="cls-12" d="M242.69,390.24c-4.56,6.15-12,6.71-22.66-4.8-29.69-32-68.12-23.3-108.87-23.88a45.5,45.5,0,0,1-19.29-4.47c22,6.67,68.63-5.22,98.47,6.22,27.33,10.48,33.18,28.38,46.72,28.82A8.29,8.29,0,0,0,242.69,390.24Z"/>
          <path class="cls-13" d="M200.82,348.46c-4.54,5.34,25.32,33.63,31.44,21.4S208.24,339.73,200.82,348.46Z"/>
        </g>
        <path class="cls-14" d="M122.22,254.14c-23.61,27.2,109.16,155.46,126.63,104.8S162.39,207.85,122.22,254.14Z"/>
        <path class="cls-15" d="M160.89,435.08A28.85,28.85,0,0,1,150,437c-16.93-.21-34.59-14.33-42.81-35.85-5.14-13.45-5.59-27.21-2.17-38.42,3.25-10.66,10-19,19.58-22.69,19.63-7.5,43.69,7.7,53.71,33.93S180.54,427.59,160.89,435.08Z"/>
        <path class="cls-16" d="M170.11,380.49c3.65,13-1.28,25.76-11,28.49s-20.57-5.6-24.22-18.6,1.29-25.76,11-28.49S166.47,367.49,170.11,380.49Z"/>
        <path class="cls-17" d="M160.89,435.08A28.85,28.85,0,0,1,150,437c5.46-.2,9.85-1.72,11.53-5.56C167.4,418,123.14,346.3,105,362.72c3.25-10.66,10-19,19.58-22.69,19.63-7.5,43.69,7.7,53.71,33.93S180.54,427.59,160.89,435.08Z"/>
        <path class="cls-18" d="M250.9,374.37c-1.42-1.38-13,1-14.85,1.18-3.36.27-6.71.53-10.06.81q-11.75.92-23.5,1.85-16.11,1.26-32.24,2.55a30.56,30.56,0,0,1-10.9-.86c-4.75-1.32-8.73-3.86-15.34-6.65-7.12-3-9.86-11.53-15-17.29-6.81-7.65-17.62-10.2-25.95-16.16a35.89,35.89,0,0,1-3.44-2.8c-5.4-4.9-9.38-11.14-12.88-17.55-3.21-5.87-7.42-9.59-10.77-14.64C77,306.44,164.14,290,164.14,290S250.86,374.35,250.9,374.37Z"/>
        <path class="cls-19" d="M250.9,374.37c-1.42-1.38-13,1-14.85,1.18-3.36.27-6.71.53-10.06.81a19.43,19.43,0,0,1-2.47-5.19c-6.11-20.09-37.55-48.91-54.14-56.77-14.59-6.92-65,9.14-69.8,22.6-5.4-4.9-9.38-11.14-12.88-17.55-3.21-5.87-7.42-9.59-10.77-14.64C77,306.44,164.14,290,164.14,290S250.86,374.35,250.9,374.37Z"/>
        <path class="cls-20" d="M250.48,407.55c-15.95,2.34-41.09-10.48-59.48-8.14s-29.41,5.24-39.23-7a22.35,22.35,0,0,1-2.32-3.51c-5.87-11,2.25-21.23,18.88-23.86,0,0,10.11-.28,23-.56,18.88-.39,43.77-.72,51.77,0C256.61,365.63,266.42,405.23,250.48,407.55Z"/>
        <path class="cls-19" d="M250.48,407.55c-15.95,2.34-41.09-10.48-59.48-8.14s-29.41,5.24-39.23-7a22.35,22.35,0,0,1-2.32-3.51c17.8,10,79.87,8.22,77.57-6.4-1.5-9.57-20.16-15.07-35.67-18,18.88-.39,43.77-.72,51.77,0C256.61,365.63,266.42,405.23,250.48,407.55Z"/>
        <path class="cls-15" d="M74.39,332.53a2.92,2.92,0,0,1-.38.14c-13.42,4.82-29.7-5.6-36.51-23.46-6.88-18-1.52-36.8,12-41.95A20.85,20.85,0,0,1,62,266.61C72,269,81.52,277.93,86.36,290.56,93.24,308.59,87.87,327.38,74.39,332.53Z"/>
        <path class="cls-17" d="M74.39,332.53a2.92,2.92,0,0,1-.38.14c5-13.81,3.82-50.69-12-66.06C72,269,81.52,277.93,86.36,290.56,93.24,308.59,87.87,327.38,74.39,332.53Z"/>
        <path class="cls-21" d="M156.28,274.23c-7.29,7.28-18.34,22.7-64.63,7.86C72.82,276,62.93,265,58.27,252.15a59.06,59.06,0,0,1-3.18-14.22c-1.59-15,1.5-30.57,4.24-42.3,4-17,37.47-34.43,61.85-37.33a59.25,59.25,0,0,1,6.21-.42,32.17,32.17,0,0,1,10.25,1.34.06.06,0,0,1,.05,0c4.77,1.57,8,4.56,9,9.31,5.24,26.2-19.21,34.06-31.44,43.67S120.76,257.63,156.28,274.23Z"/>
        <path class="cls-22" d="M156.28,274.23c-7.29,7.28-18.34,22.7-64.63,7.86C72.82,276,62.93,265,58.27,252.15c30.22,27.32,70,26.55,56.08,2-14.84-26.2-15.72-45.41,7-53.27,18.87-6.54,30.5-34.78,16.35-41.63,4.77,1.57,8,4.56,9,9.31,5.24,26.2-19.21,34.06-31.44,43.67S120.76,257.63,156.28,274.23Z"/>
        <path class="cls-15" d="M291.31,435.08c-19.65,7.51-43.7-7.7-53.71-33.94a64.58,64.58,0,0,1-4.35-24c.28-17.24,8.2-31.91,21.77-37.08,19.63-7.5,43.68,7.7,53.71,33.93.61,1.61,1.17,3.24,1.64,4.86C317.74,403.5,309.74,428,291.31,435.08Z"/>
        <path class="cls-16" d="M300.53,380.49c3.65,13-1.28,25.76-11,28.49s-20.57-5.6-24.22-18.6,1.29-25.76,11-28.49S296.89,367.49,300.53,380.49Z"/>
        <path class="cls-17" d="M310.37,378.82c-16.49-12.93-53.55-22.25-77.12-1.71.28-17.24,8.2-31.91,21.77-37.08,19.63-7.5,43.68,7.7,53.71,33.93C309.34,375.57,309.9,377.2,310.37,378.82Z"/>
        <path class="cls-23" d="M94.27,191.56s0,3.16-.47,7.87a95.82,95.82,0,0,1-2.26,13.19c-2.39,9.66-6.88,20-15.32,24.93-6.88,4-12.66,3.93-17.17,2.32a19.7,19.7,0,0,1-4-1.94c-1.59-15,1.5-30.57,4.24-42.3a23.08,23.08,0,0,0,4.41,1.31h0C77.32,199.56,94.27,191.56,94.27,191.56Z"/>
        <path class="cls-24" d="M91.54,212.62c-2.39,9.66-6.88,20-15.32,24.93-6.88,4-12.66,3.93-17.17,2.32C62.77,216.76,85.38,213.16,91.54,212.62Z"/>
        <path class="cls-5" d="M94.27,191.56s0,3.16-.47,7.87c-7.92,3.46-21.49,7.18-30-2.49C77.32,199.56,94.27,191.56,94.27,191.56Z"/>
        <path class="cls-25" d="M103.58,171.17C122.8,116.44,178.69,113,178.69,113l-1.16,7.57s-47.16,3.49-65.21,52.4C105.91,178.16,103.58,171.17,103.58,171.17Z"/>
        <path class="cls-25" d="M94.27,171.75C94.85,132.74,128,117,128,117l-4.66-6.4s-37.85,15.14-37.85,62.3C90.19,179.9,94.27,171.75,94.27,171.75Z"/>
        <path class="cls-25" d="M198.15,118.87c-3.7,9.26-12,14.63-18.6,12s-8.89-12.27-5.18-21.52,12-14.62,18.6-12S201.86,109.62,198.15,118.87Z"/>
        <path class="cls-5" d="M193,118.2c-2.79,7-9.05,11-14,9S172.35,118,175.14,111s9-11,14-9S195.8,111.25,193,118.2Z"/>
        <path class="cls-26" d="M186.16,117c-1.78,4.45-5.79,7-8.95,5.77s-4.28-5.9-2.5-10.36,5.8-7,9-5.77S188,112.53,186.16,117Z"/>
        <path class="cls-25" d="M146.92,109.56c-3.71,9.25-12,14.62-18.61,12s-8.88-12.26-5.18-21.52,12-14.62,18.6-12S150.62,100.31,146.92,109.56Z"/>
        <path class="cls-5" d="M141.78,108.89c-2.79,7-9.05,11-14,9s-6.68-9.22-3.9-16.17,9-11,14-9S144.56,101.93,141.78,108.89Z"/>
        <path class="cls-26" d="M134.93,107.67c-1.79,4.46-5.8,7-9,5.78s-4.28-5.91-2.49-10.36,5.79-7,9-5.78S136.71,103.22,134.93,107.67Z"/>
        <path class="cls-27" d="M158,281.21l-3.49,20.09S124,321.39,110,315.27s-11.36-3.49-22.71,2.62c-7.27,3.92-21-2.53-27.6-11.58-3.74-5.1-5.24-11-2.09-16.36,5.15-8.75,39.12-10.22,66.14-9.94C142.56,280.18,158,281.21,158,281.21Z"/>
        <path class="cls-19" d="M158,281.21l-3.49,20.09S124,321.39,110,315.27s-11.36-3.49-22.71,2.62c-7.27,3.92-21-2.53-27.6-11.58,14.05,10.78,22.19,4.46,34.59-.64,14.84-6.12,41.92,14.85,43.67-9.61.62-8.89-5.79-13.62-14.21-16.05C142.56,280.18,158,281.21,158,281.21Z"/>
        <path class="cls-15" d="M182.69,332.53a21.18,21.18,0,0,1-13.89.28c-9.47-2.85-18.39-11.51-23-23.6-6.89-18-1.52-36.8,12-41.95a20.78,20.78,0,0,1,12.7-.61h0c9.87,2.46,19.35,11.33,24.17,23.91C201.53,308.59,196.17,327.38,182.69,332.53Z"/>
        <path class="cls-16" d="M189,295c2.5,8.93-.89,17.69-7.57,19.56s-14.13-3.84-16.63-12.77.88-17.69,7.56-19.56S186.51,286.11,189,295Z"/>
        <path class="cls-28" d="M182.69,332.53a21.18,21.18,0,0,1-13.89.28c12.17-6.76,15.53-47.86,1.68-66.16,9.87,2.46,19.35,11.33,24.17,23.91C201.53,308.59,196.17,327.38,182.69,332.53Z"/>
        <path class="cls-29" d="M319.59,250.35l-5.71-14.41v0L305,213.67c17.78-3.9,32.93-1.4,36.3,7a8.11,8.11,0,0,1,.38,1.21C344.05,231.14,319.59,250.35,319.59,250.35Z"/>
        <path class="cls-30" d="M319.59,250.35l-5.71-14.41v0c.74-5.27,1.35-8.85,1.35-8.85s9.74,13,26.11-6.45a8.11,8.11,0,0,1,.38,1.21C344.05,231.14,319.59,250.35,319.59,250.35Z"/>
        <path class="cls-31" d="M323.09,254.44c0,27.35-16.89,37.83-16.89,37.83s-2.59-14.93-6.4-32.28c-4.64-21.26-11.12-46.11-16.89-51.56,22.15-6.39,35.57,11.35,39.18,33.54A77.72,77.72,0,0,1,323.09,254.44Z"/>
        <path class="cls-32" d="M323.09,254.44c0,27.35-16.89,37.83-16.89,37.83s-2.59-14.93-6.4-32.28c1-4.91,2.38-10.34,4.07-16.33,8.42,8.42,14.62,3.53,18.22-1.69A77.72,77.72,0,0,1,323.09,254.44Z"/>
        <path class="cls-33" d="M296.89,304.5c-2.27-.68-5.35-5.07-8.83-11.71-14.28-27.42-35.42-93.09-35.42-93.09,27.11-13,50.18,18.93,55.58,48.31.39,2.16.7,4.31.89,6.43C312,285.28,308.54,308,296.89,304.5Z"/>
        <path class="cls-34" d="M296.89,304.5c-2.27-.68-5.35-5.07-8.83-11.71L289.9,255c10.74,8.06,16.31-1.94,18.32-7,.39,2.16.7,4.31.89,6.43C312,285.28,308.54,308,296.89,304.5Z"/>
        <path class="cls-35" d="M285.24,327.21c-2.73-.88-8.06-5.56-14.92-12.58C240.48,284.06,181.6,209,181.6,209c1.17-2.34,20.39-13.39,50.08-16.89,27.79-3.26,58.11,34.76,66.18,67.32.56,2.24,1,4.45,1.35,6.62C304.45,299.85,299.8,331.87,285.24,327.21Z"/>
        <path class="cls-36" d="M285.24,327.21c-2.73-.88-8.06-5.56-14.92-12.58-17.91-30.71-18.85-60.49-18.85-60.49,27.88,29.24,46.24,25.66,46.39,5.31.56,2.24,1,4.45,1.35,6.62C304.45,299.85,299.8,331.87,285.24,327.21Z"/>
        <path class="cls-37" d="M284.66,339.43s-21,11.65-32,7.58S220,329,209,301.6s-48.9-71.62-75.7-74a87,87,0,0,1,8.39-7.86,91.28,91.28,0,0,1,26-15.42c12.38-4.59,45.64,13.61,72.82,36.82,17.54,15,32.56,32.05,37.8,46.44C291.65,324.31,284.66,339.43,284.66,339.43Z"/>
        <path class="cls-38" d="M284.66,339.43s-21,11.65-32,7.58S220,329,209,301.6s-48.9-71.62-75.7-74a87,87,0,0,1,8.39-7.86c36.64-2.5,52.59,8.44,65.27,43.09,13.1,35.81,41.92,83.85,65.5,58.52,17.92-19.25-15.09-61.17-32-80.21,17.54,15,32.56,32.05,37.8,46.44C291.65,324.31,284.66,339.43,284.66,339.43Z"/>
        <path class="cls-39" d="M260.21,343.52,248,347s-38.43-20.38-44.84-47.75c-3.39-14.45-17.66-29.89-33.38-38.4-13.12-7.1-27.23-9.37-36.87-2.23-8.53-7.76-14.74-16.35-18.24-24.14,5.82-6.41,18.76-15,44.25-9.17,13.11,3,22.37,8.68,29.46,16.49,13.7,15.05,19.37,38,29.35,64.43C232.83,346.42,260.21,343.52,260.21,343.52Z"/>
        <path class="cls-40" d="M260.21,343.52,248,347s-38.43-20.38-44.84-47.75c-3.39-14.45-17.66-29.89-33.38-38.4,16.61,1.86,22.71-8.94,18.6-19.05,13.7,15.05,19.37,38,29.35,64.43C232.83,346.42,260.21,343.52,260.21,343.52Z"/>
        <path class="cls-13" d="M308.45,343.9c-3.85,3.88,9.79,13.55,12.83,11.64S311.62,340.7,308.45,343.9Z"/>
        <g>
          <path class="cls-9" d="M349.87,379.61c26.78,14.56,59.39,10.48,59.39,10.48s-12.23-35.51-46-48.91S349.87,379.61,349.87,379.61Z"/>
          <path class="cls-10" d="M354.53,368c19.21,14,37.84,10.48,37.84,10.48s-9.31-19.8-30.27-26.79S354.53,368,354.53,368Z"/>
          <path class="cls-41" d="M365,386.75c-4.56,6.15-12,6.71-22.66-4.8-29.69-32-68.12-23.3-108.87-23.88a45.8,45.8,0,0,1-19.29-4.47c-21.17-10.2-33.39-36.51-30.81-65.26a87.35,87.35,0,0,1,2.81-15.58c6.73,6.31,12.2,13.62,15.2,21-6.2,73.52,71.35,38.11,98,34.27,15.84-2.29,54.13-6.53,65.66,9.12a23.33,23.33,0,0,1,3.07,6.29C372.36,356,371.8,377.6,365,386.75Z"/>
          <path class="cls-12" d="M368.08,343.4c-5.92-5.75-15.52-12.13-27.53-13.71-33.18-4.37-68.12,13.53-103,14-26.24.33-38.43-14-40.18-37.56-1.53-20.64-7.94-27.16-14-17.76a87.35,87.35,0,0,1,2.81-15.58c6.73,6.31,12.2,13.62,15.2,21-6.2,73.52,71.35,38.11,98,34.27,15.84-2.29,54.13-6.53,65.66,9.12A23.33,23.33,0,0,1,368.08,343.4Z"/>
          <path class="cls-12" d="M365,386.75c-4.56,6.15-12,6.71-22.66-4.8-29.69-32-68.12-23.3-108.87-23.88a45.8,45.8,0,0,1-19.29-4.47c22,6.67,68.63-5.22,98.47,6.22,27.33,10.48,33.18,28.38,46.72,28.82A8.29,8.29,0,0,0,365,386.75Z"/>
          <path class="cls-13" d="M323.09,345c-4.54,5.33,25.32,33.62,31.44,21.4S330.51,336.24,323.09,345Z"/>
        </g>
        <path class="cls-42" d="M130.08,240.17c4.32-19.44,46.28-5.24,40.17,7-3.21,6.42-12,1-21.83-3.49C139.49,239.6,129.24,243.9,130.08,240.17Z"/>
        <path class="cls-43" d="M209.55,231.43c-7.64,7.64,29.69,71.62,42.79,62.88S218.28,222.7,209.55,231.43Z"/>
        <path class="cls-44" d="M221.78,204.36c-11.53,15.59,45.41,38.43,52.4,33.19S236.62,184.27,221.78,204.36Z"/>
        <path class="cls-45" d="M125.71,158.07a23.41,23.41,0,0,1-4.53.23,59.25,59.25,0,0,1,6.21-.42C126.84,157.93,126.29,158,125.71,158.07Z"/>
      </g>
    </g>
  </g>
</svg>
